<svg width="342" height="342" viewBox="0 0 342 342" fill="none" xmlns="http://www.w3.org/2000/svg">
<circle cx="171" cy="171" r="171" fill="black"/>
<path d="M150.273 147.182V161.727H107.182V147.182H150.273ZM117.045 217V142.136C117.045 137.076 118.03 132.879 120 129.545C122 126.212 124.727 123.712 128.182 122.045C131.636 120.379 135.561 119.545 139.955 119.545C142.924 119.545 145.636 119.773 148.091 120.227C150.576 120.682 152.424 121.091 153.636 121.455L150.182 136C149.424 135.758 148.485 135.53 147.364 135.318C146.273 135.106 145.152 135 144 135C141.152 135 139.167 135.667 138.045 137C136.924 138.303 136.364 140.136 136.364 142.5V217H117.045ZM162.102 217V147.182H180.875V159.364H181.602C182.875 155.03 185.011 151.758 188.011 149.545C191.011 147.303 194.466 146.182 198.375 146.182C199.345 146.182 200.39 146.242 201.511 146.364C202.633 146.485 203.617 146.652 204.466 146.864V164.045C203.557 163.773 202.299 163.53 200.693 163.318C199.087 163.106 197.617 163 196.284 163C193.436 163 190.89 163.621 188.648 164.864C186.436 166.076 184.678 167.773 183.375 169.955C182.102 172.136 181.466 174.652 181.466 177.5V217H162.102ZM217.795 218.182C214.795 218.182 212.22 217.121 210.068 215C207.947 212.848 206.886 210.273 206.886 207.273C206.886 204.303 207.947 201.758 210.068 199.636C212.22 197.515 214.795 196.455 217.795 196.455C220.705 196.455 223.25 197.515 225.432 199.636C227.614 201.758 228.705 204.303 228.705 207.273C228.705 209.273 228.189 211.106 227.159 212.773C226.159 214.409 224.841 215.727 223.205 216.727C221.568 217.697 219.765 218.182 217.795 218.182Z" fill="white"/>
</svg>
